PathFileType	4	(X/Y/Z)	Patient4_TMGait_0pt5_02_left_32.trc.trc
DataRate	CameraRate	NumFrames	NumMarkers	Units	OrigDataRate	OrigDataStartFrame	OrigNumFrames
73.298429319372	73.298429319372	6	33	mm	73.298429319372	71	       141
Frame#	Time	Sacral			L.Shoulder			Chest			R.Shoulder			Neck			R.ASIS			L.ASIS			R.Thigh.Superior			R.Thigh.Lateral			R.Thigh.Inferior			R.Patella			L.Thigh.Superior			L.Thigh.Lateral			L.Thigh.Inferior			L.Patella			L.Shank.Superior			L.Shank.Lateral			L.Shank.Inferior			R.Shank.Superior			R.Shank.Lateral			R.Shank.Inferior			R.Heel			R.Midfoot.Superior			R.Midfoot.Lateral			R.Toe			L.Heel			L.Midfoot.Lateral			L.Midfoot.Superior			L.Toe			L.Elbow			L.Wrist			R.Elbow			R.Wrist			
		X1	Y1	Z1	X2	Y2	Z2	X3	Y3	Z3	X4	Y4	Z4	X5	Y5	Z5	X6	Y6	Z6	X7	Y7	Z7	X8	Y8	Z8	X9	Y9	Z9	X10	Y10	Z10	X11	Y11	Z11	X12	Y12	Z12	X13	Y13	Z13	X14	Y14	Z14	X15	Y15	Z15	X16	Y16	Z16	X17	Y17	Z17	X18	Y18	Z18	X19	Y19	Z19	X20	Y20	Z20	X21	Y21	Z21	X22	Y22	Z22	X23	Y23	Z23	X24	Y24	Z24	X25	Y25	Z25	X26	Y26	Z26	X27	Y27	Z27	X28	Y28	Z28	X29	Y29	Z29	X30	Y30	Z30	X31	Y31	Z31	X32	Y32	Z32	X33	Y33	Z33	

71	42.085000000000	711.148086896662	1008.553334919397	444.181246820493	926.407836492565	1418.481236220925	262.439220140287	1007.698716539722	1353.189386047780	436.471781280966	910.735248651978	1441.941604740464	597.091770013558	911.551918491327	1487.572090960476	409.941752482698	924.726983176600	935.778690840689	581.739824522510	939.670706883795	956.417877376809	305.579201279065	991.685498052334	755.099054417299	558.398808200142	934.681098266247	636.378102283114	624.831127898785	1024.388384778738	594.614796147310	547.252900705193	1053.554031819468	515.659554891848	560.037426142239	937.683593413857	731.804034813978	337.093854337556	826.474530352173	636.868690714050	268.716439862705	882.424826122471	544.434193121655	337.177877861012	869.295324695735	478.009421749934	346.521565431100	837.839240037656	412.704468918080	337.677928895266	743.693964470191	304.184638864443	281.297843106486	780.473918041178	191.137093206707	359.244393114221	1043.485646453065	430.270840429166	568.903668280139	999.248120598234	313.158466821469	631.027020558438	1074.573058107827	232.894105109885	578.334752095429	994.181483675605	43.281750522390	548.515179437544	1153.895551193194	123.129293348279	588.463791813918	1078.773218989540	44.947957659004	622.000531438999	1279.361375455625	90.697170362433	612.724462934423	642.141311466321	38.810635509775	397.397824914055	720.202587966668	35.122253458251	320.997421515135	802.046574795523	95.359215013774	351.468314688762	931.683745426502	42.173164450760	331.190669643469	931.812937656950	1078.532297719517	115.587820062820	1167.930628421793	974.557885288981	103.959665436198	742.066110647320	1151.702255224847	721.550915742369	705.530765103681	892.850528288721	742.210545804061	
72	42.098642857143	713.063941452121	1006.905472415359	446.453345256369	926.492937596485	1417.773270399292	265.777149769184	1008.039956125382	1352.600923923803	439.719306551508	910.494566880578	1440.508252266883	600.514485772569	911.243821460039	1486.527066468331	413.417080882283	926.956443345161	933.987562407299	583.683814788541	941.588937056595	955.459484348117	307.719131951609	993.882917233680	753.012331733488	559.990516672736	935.202678889917	633.921065248489	625.019821300283	1025.246205567502	592.518105240322	547.995619583330	1053.339398363375	513.159770759674	559.975258197863	937.815142080226	730.322226211588	338.305451787770	825.079071110954	636.593191165038	269.988341358212	880.130556573478	543.379930220354	338.060634411262	866.620065108281	476.767097994134	347.313377572276	834.208945630499	411.955576121784	338.438786172197	738.778449083363	304.497508012170	281.945828873105	774.630985429424	190.849708225762	359.514399383731	1042.559323340102	426.980308637038	568.414233636096	996.622237530073	310.287012788493	629.852934463684	1070.736234603621	229.337441617576	577.006083153550	987.021957956293	42.728729533231	546.922489876487	1148.296412717580	118.380767711855	586.553218404769	1071.425477641455	42.864412848089	620.553951464870	1272.978326826146	82.997967989114	611.010956613599	635.266768254743	38.892234865383	397.347712927930	713.366438491284	35.134607641958	321.053421093309	795.228030111019	95.360763872782	351.514207237980	924.846594880378	41.974493468862	331.175903162192	931.045964055563	1077.639471469531	119.049430354391	1167.898315058615	975.632844540989	108.183756314544	743.256199364033	1148.928767696826	723.713296167622	710.155121453096	889.258239024572	741.877494022908	
73	42.112285714286	715.071265094825	1005.301615974092	448.865713138253	926.499286434866	1417.188039182619	269.329573181413	1008.407619037063	1352.123662713985	443.149237796617	910.253548978363	1439.054882051294	604.177197114902	910.913598225183	1485.575907396979	417.141019301367	929.389956597422	932.292716213324	585.654089841376	943.506178220643	954.558219990280	309.966044175413	996.548102197146	751.178903431028	561.374371638025	936.346182760885	631.806193162701	625.077044152921	1026.641132453940	590.801774456162	548.498934023602	1053.577051820918	510.802745066966	559.694157957145	938.297239257013	728.913139084600	339.490755844803	824.106031620984	636.281190406711	271.431468682165	878.422894324721	542.337250941781	339.081202385184	864.549451877237	475.446129910967	348.260589299747	831.106030950119	411.112970301202	339.350368734044	734.216451951935	304.889370934335	282.746497298613	768.981815183447	190.567093029504	359.854952288039	1041.901611691914	423.746185533418	567.822904874150	993.964521896439	307.655352579436	628.764381750590	1066.394574204236	225.708156379885	575.634593283941	978.488737196969	42.388887817154	545.566153805435	1141.538314188627	113.488332900256	584.558543163211	1062.767395735119	40.934233684043	619.305389298978	1265.450066978772	74.885156157303	609.260191664211	628.397000106216	39.114436606501	397.285362544925	706.557654515920	35.203039578596	321.118336688185	788.480764393918	95.391420743376	351.561140454691	918.059437709746	41.735452513773	331.148931967680	929.949005812601	1076.750350392207	122.848792708533	1167.206134382082	975.909282841601	112.623039779482	745.117743704408	1145.723144285085	726.230868698459	716.198516257165	885.213759064107	741.906249531599	
74	42.125928571429	717.116071213826	1003.842092501509	451.380648933345	926.475372886525	1416.803691013311	273.080435852049	1008.822071265903	1351.797617055141	446.744321302551	910.062699537263	1437.650404233089	608.058773167452	910.626620542127	1484.794244851197	421.101052675151	931.948393348250	930.796411505147	587.661209004806	945.390660785315	953.789632227955	312.307532492883	999.531949627448	749.663883466703	562.559113468940	938.018857410757	630.136920858862	625.082400356104	1028.431877727448	589.532043103227	548.781932353005	1054.135649990196	508.708901254779	559.235302873588	939.141652860939	727.655828379783	340.696482490818	823.648874995286	635.944638437986	273.057394380516	877.430947395653	541.346703210548	340.272193145231	863.223784058120	474.064771981389	349.362412638933	828.647932902828	410.182893147029	340.413515587291	730.105082577288	305.405994392948	283.704567128232	763.587693968654	190.325063618443	360.255198416201	1041.508024914793	420.762620755061	567.206333493015	991.508075362578	305.395562689739	627.894750380212	1061.895659791870	222.260378603017	574.310772438474	969.330249064486	42.209600256460	544.504555999035	1134.156637948956	108.900705515717	582.628696802446	1053.542626490834	39.288548454632	618.313251857693	1257.382466955352	67.147360854046	607.597807155893	621.547947079082	39.582107406604	397.207767737280	699.789405095331	35.371376145805	321.188764696716	781.852518339272	95.463234009784	351.592435959501	911.334804598651	41.449068182225	331.110914802760	928.513762967241	1075.937509360430	127.001568256482	1165.824038862227	975.388374739224	117.265450962638	747.663674156968	1142.177899129745	729.049663964937	723.610370584038	880.864959629493	742.327962119650	
75	42.139571428571	719.144320036668	1002.626032973300	453.962619816585	926.472503129719	1416.702569226062	277.005669735739	1009.296884012782	1351.666034753192	450.480563585772	909.966638353548	1436.373558043505	612.126918377818	910.440110257330	1484.258050992945	425.274280385197	934.548489873305	929.600367790038	589.723264326541	947.203482073742	953.232115227680	314.732205680573	1002.681182315382	748.539594372628	563.563576472883	940.127625108737	628.996135349949	625.116867534046	1030.477283927080	588.755170866713	548.879241648198	1054.888354894948	506.972073780253	558.671068485586	940.355531512438	726.635808457204	341.978599060394	823.807554513827	635.597695530453	274.869555570769	877.299034454582	540.451609304041	341.653214262140	862.801182057417	472.643050220455	350.596125994686	826.963584544138	409.178905312738	341.609303532486	726.551178227472	306.104753781733	284.812885816555	758.523252573302	190.172404492641	360.690654698576	1041.333610699146	418.185434962360	566.642633943437	989.384878114612	303.615151051183	627.349409413773	1057.471303513980	219.204898021448	573.117516751908	960.132088733970	42.147447430576	543.758753066208	1126.563072944599	104.972909892394	580.894785856958	1044.324439948925	38.009432985226	617.603844712980	1249.230344050685	60.408182545143	606.141925460780	614.747001225146	40.427199968236	397.111530463480	693.078890014986	35.698102197325	321.259352269323	775.402589045910	95.590743806061	351.584167710421	904.681436419832	41.111481181523	331.064056634529	926.726775244265	1075.286049282759	131.519751870362	1163.708815232535	974.088719950942	122.108217862912	750.905642166731	1138.399132436302	732.106799613671	732.352176523047	876.376525142978	743.160863539597	
76	42.153214285714	721.109489114567	1001.735922656318	456.586777752257	926.537240620747	1416.957735185726	281.074058250918	1009.836258495443	1351.767251771305	454.327676162335	909.999549967034	1435.302121885519	616.339692413542	910.393728787879	1484.030941468650	429.627098338829	937.113674857544	928.789123780135	591.863375131620	948.902019113696	952.956586802051	317.229071903748	1005.846830629926	747.860648558378	564.418801671387	942.568591522512	628.424182924380	625.256968273253	1032.632898226724	588.471975570580	548.844687296441	1055.706309071835	505.636183939114	558.098043883136	941.943977960369	725.934044047187	343.392463995014	824.683312124812	635.252076636773	276.860495258973	878.180945797931	539.690619585086	343.223146862976	863.450292083175	471.198604255368	351.913360700499	826.187709928912	408.119701340640	342.897625733036	723.668021754984	307.050044958105	286.050980158294	753.874873524793	190.168192917326	361.124064757149	1041.284130365208	416.105855685557	566.203365579902	987.601496607404	302.368606371158	627.186040695959	1053.222281359694	216.677484817864	572.121565838199	951.279851400952	42.163855504527	543.316121314451	1119.029479647436	101.917610918955	579.449187417224	1035.483652983103	37.119768526719	617.171634965776	1241.281324929946	55.053146667948	604.978092377213	608.035809875658	41.803903845286	396.992439772203	686.448095068466	36.257018657269	321.322825466413	769.199087000965	95.791015438584	351.506889660463	898.101946514356	40.723051598137	331.011544372069	924.572257622558	1074.883641494452	136.405645675802	1160.810131905811	972.044451032387	127.157191763526	754.843740051653	1134.500464392020	735.337996876694	742.398884039950	871.921868672334	744.408537306233	
